<?xml version="1.0" standalone="no"?>
<!DOCTYPE svg PUBLIC "-//W3C//DTD SVG 20010904//EN"
 "http://www.w3.org/TR/2001/REC-SVG-20010904/DTD/svg10.dtd">
<svg version="1.0" xmlns="http://www.w3.org/2000/svg"
 width="530.000000pt" height="530.000000pt" viewBox="0 0 530.000000 530.000000"
 preserveAspectRatio="xMidYMid meet">
<metadata>
Created by potrace 1.11, written by Peter Selinger 2001-2013
</metadata>
<g transform="translate(0.000000,530.000000) scale(0.100000,-0.100000)"
fill="#000000" stroke="none">
<path d="M2465 5293 c-392 -31 -779 -146 -1098 -325 -608 -341 -1068 -913
-1257 -1563 -36 -125 -72 -295 -91 -435 -17 -122 -17 -506 -1 -630 43 -323
120 -577 262 -865 287 -582 771 -1031 1379 -1280 477 -195 1041 -242 1555
-130 852 186 1566 789 1890 1596 213 533 249 1105 104 1664 -191 735 -698
1357 -1388 1699 -297 147 -611 235 -950 266 -106 9 -310 11 -405 3z m320
-1538 c39 -8 108 -33 155 -56 109 -54 218 -160 273 -266 21 -40 41 -73 45 -73
4 0 30 7 57 16 63 19 183 21 255 4 197 -46 361 -226 390 -427 34 -246 -113
-483 -350 -564 -52 -18 -87 -22 -172 -22 l-108 0 0 -203 0 -204 -685 0 -685 0
0 206 0 206 -62 -7 c-251 -26 -494 149 -553 396 -69 296 130 586 431 627 73
10 167 3 228 -18 21 -6 39 -10 40 -8 2 1 18 32 37 68 53 101 173 217 279 269
139 68 279 87 425 56z m545 -2051 c0 -59 -5 -84 -20 -109 -38 -61 -20 -60
-650 -63 l-575 -3 -45 23 c-59 30 -80 72 -80 161 l0 67 685 0 685 0 0 -76z"/>
</g>
</svg>
